# xmcd
#
# Track frame offsets: 
#        150
#        26499
#        52376
#        69476
#        95106
#        107596
#        124274
#        138974
#        153524
#        166799
#        182024
#        194774
#        208274
#        221699
#        235049
#        248624
#        262349
#        277124
#        294899
#        307574
#        328199
#
# Disc length: 4551 seconds
#
# Revision: 1
# Processed by: cddbd v1.5.2PL0 Copyright (c) Steve Scherf et al.
# Submitted via: ExactAudioCopy v0.99pb5
#
DISCID=4311c515
DTITLE=Various Artist - Carnegie Hall Concert, 16 January 1938
DYEAR=1945
DGENRE=Swing
TTITLE0=Benny Goodman Quartet - Stompin' At The Savoy
TTITLE1=Benny Goodman Quartet - Dizzy Spells
TTITLE2=Benny Goodman and His Orchestra - Sing Sing Sing, Part 1
TTITLE3=Benny Goodman and His Orchestra - Sing Sing Sing, Part 2
TTITLE4=Benny Goodman and His Orchestra - Sing Sing Sing, Part 3
TTITLE5=Benny Goodman and His Orchestra - Big John's Special (Carnegie H
TTITLE5=all Final Encore)
TTITLE6=Benny Goodman Sextet - After You've Gone
TTITLE7=Benny Goodman Sextet - Slipped Disc
TTITLE8=Benny Goodman Sextet - Tiger Rag
TTITLE9=Benny Goodman Sextet - Oomph Fah Fah
TTITLE10=Benny Goodman Sextet - China Boy
TTITLE11=Benny Goodman Sextet - He's (She's) Funny That Way
TTITLE12=Benny Goodman Sextet - Rachel's Dream
TTITLE13=Benny Goodman Trio - Body And Soul
TTITLE14=Benny Goodman Quintet - Liza (All The Clouds'll Roll Away)
TTITLE15=Benny Goodman Sextet - Just One Of Those Things
TTITLE16=Benny Goodman Sextet - Shine
TTITLE17=Benny Goodman Sextet - I Got Rhythm
TTITLE18=Benny Goodman Sextet - Ain't Misbehavin'
TTITLE19=Benny Goodman and His Orchestra - All The Cats Join In
TTITLE20=Benny Goodman Quartet - After You've Gone
EXTD=YEAR: 1938
EXTT0=
EXTT1=
EXTT2=
EXTT3=
EXTT4=
EXTT5=
EXTT6=
EXTT7=
EXTT8=
EXTT9=
EXTT10=
EXTT11=
EXTT12=
EXTT13=
EXTT14=
EXTT15=
EXTT16=
EXTT17=
EXTT18=
EXTT19=
EXTT20=
PLAYORDER=
